<svg width="32" height="32" viewBox="0 0 32 32" fill="none" xmlns="http://www.w3.org/2000/svg">
<path d="M19 3C19 4.65688 17.6562 6 16 6C14.3438 6 13 4.65688 13 3C13 1.34312 14.3438 0 16 0C17.6562 0 19 1.34312 19 3ZM19 29C19 30.6562 17.6562 32 16 32C14.3438 32 13 30.6562 13 29C13 27.3438 14.3438 26 16 26C17.6562 26 19 27.3438 19 29ZM0 16C0 14.3438 1.34312 13 3 13C4.65688 13 6 14.3438 6 16C6 17.6562 4.65688 19 3 19C1.34312 19 0 17.6562 0 16ZM32 16C32 17.6562 30.6562 19 29 19C27.3438 19 26 17.6562 26 16C26 14.3438 27.3438 13 29 13C30.6562 13 32 14.3438 32 16ZM4.68625 27.3125C3.51438 26.1437 3.51438 24.2438 4.68625 23.0688C5.85813 21.9 7.75625 21.9 8.93125 23.0688C10.1 24.2438 10.1 26.1437 8.93125 27.3125C7.75625 28.4875 5.85813 28.4875 4.68625 27.3125ZM8.93125 8.93125C7.75625 10.1 5.85813 10.1 4.68625 8.93125C3.515 7.75625 3.515 5.85813 4.68625 4.68625C5.85813 3.51438 7.75625 3.51438 8.93125 4.68625C10.1 5.85813 10.1 7.75625 8.93125 8.93125ZM23.0688 23.0688C24.2438 21.9 26.1437 21.9 27.3125 23.0688C28.4875 24.2438 28.4875 26.1437 27.3125 27.3125C26.1437 28.4875 24.2438 28.4875 23.0688 27.3125C21.9 26.1437 21.9 24.2438 23.0688 23.0688Z" fill="#505F79"/>
</svg>
